<?xml version="1.0" encoding="utf-8"?>
<!-- Generator: Adobe Illustrator 19.0.1, SVG Export Plug-In . SVG Version: 6.00 Build 0)  -->
<svg version="1.1" id="Layer_1" xmlns="http://www.w3.org/2000/svg" xmlns:xlink="http://www.w3.org/1999/xlink" x="0px" y="0px"
	 viewBox="0 0 205 142.7" style="enable-background:new 0 0 205 142.7;" xml:space="preserve">
<style type="text/css">
	.st0{fill:#EB9322;}
</style>
<path id="XMLID_167_" class="st0" d="M60.6,82c-1.6,0-2.8-1.3-2.8-2.8V59.6c0-1.6,1.3-2.8,2.8-2.8h14.3c1.6,0,2.8,1.3,2.8,2.8
	s-1.3,2.8-2.8,2.8H63.4v16.7C63.4,80.7,62.2,82,60.6,82z"/>
<path id="XMLID_166_" class="st0" d="M74.9,55.6h-17c-1.6,0-2.8-1.3-2.8-2.8s1.3-2.8,2.8-2.8h17c1.6,0,2.8,1.3,2.8,2.8
	S76.5,55.6,74.9,55.6z"/>
<path id="XMLID_165_" class="st0" d="M35.3,55.6H24.3c-1.6,0-2.8-1.3-2.8-2.8s1.3-2.8,2.8-2.8h10.9c1.6,0,2.8,1.3,2.8,2.8
	S36.8,55.6,35.3,55.6z"/>
<path id="XMLID_164_" class="st0" d="M127.8,48.4h-18.9c-1.6,0-2.8-1.3-2.8-2.8V29H94.8c-1.6,0-2.8-1.3-2.8-2.8s1.3-2.8,2.8-2.8
	h14.1c1.6,0,2.8,1.3,2.8,2.8v16.6H125V12.5c0-1.6,1.3-2.8,2.8-2.8c1.6,0,2.8,1.3,2.8,2.8v33.1C130.7,47.2,129.4,48.4,127.8,48.4z"/>
<path id="XMLID_163_" class="st0" d="M130.7,82.5V66.8c0-1.6-1.3-2.8-2.8-2.8h-19.4c-1.6,0-2.8,1.3-2.8,2.8s1.3,2.8,2.8,2.8H125
	v14.3l-9.7,9.7c-0.5,0.5-0.8,1.3-0.8,2c0,7.4,6,13.4,13.4,13.4c7.4,0,13.4-6,13.4-13.4C141.2,89.2,136.7,83.8,130.7,82.5z"/>
<path id="XMLID_162_" class="st0" d="M158.8,39.4c-6.4,0-11.8,4.5-13.1,10.5h-36.8c-1.6,0-2.8,1.3-2.8,2.8s1.3,2.8,2.8,2.8h38.1
	l9.7,9.7c0.5,0.5,1.3,0.8,2,0.8c7.4,0,13.4-6,13.4-13.4S166.2,39.4,158.8,39.4z"/>
<path id="XMLID_161_" class="st0" d="M60,43.3H18.3c-1.4,0-2.5-1.1-2.5-2.5s1.1-2.5,2.5-2.5h39.2V25.9c0-1.4,1.1-2.5,2.5-2.6h21.1
	c2.2-0.2,3.7,1,3.6,2.8c-0.1,2.3-2,3-3.6,2.8H62.5v11.8C62.5,42.2,61.4,43.3,60,43.3z"/>
<path id="XMLID_169_" class="st0" d="M199.1,52.7c0-11.4-4.7-21.7-12.4-29c-1.6-1.5-7-6.2-14.4-9c-3.2-1.1-6.6-1.9-10.1-2.2
	c-11.7-0.6-20.1,4-24.9,9.6V10.6c0-1.4-1.1-2.5-2.5-2.5s-2.5,1.1-2.5,2.5v23.9V41c0,1.6,1.3,2.8,2.8,2.8h3.2v0l3.3,0
	c3.3-6.3,9.9-10.5,17.2-10.5c10.7,0,19.4,8.7,19.4,19.4c0,10.7-8.7,19.4-19.4,19.4c-2.4,0-4.6-0.9-6.2-2.6l-7.9-7.9h-5.2
	c-1.5,0.1-2.7,1.3-2.7,2.8v2.4v11.6c6.3,3.3,10.5,9.9,10.5,17.2c0,10.7-8.7,19.4-19.4,19.4c-10.7,0-19.4-8.7-19.4-19.4
	c0-2.4,0.9-4.6,2.6-6.2l7.9-7.9v-3c0-1.6-1.3-2.8-2.8-2.8h-3.8h-3.9H86.8v0h-3.2c-1.6,0-2.8-1.3-2.8-2.8v-2.1V68v-1
	c0-1.6-1.3-2.8-2.8-2.8h-7.8c-1.6,0-2.8,1.3-2.8,2.8v3.7v7.8v1.8v3.5c0,2.5-2,4.5-4.5,4.5h-8.4c-2.5,0-4.5-2-4.5-4.5v-1v-4.2v-5h0
	v-6.5c0-1.5-1.2-2.8-2.8-2.8H21.2H17v0c-5.7,0.1-10.3,4.8-10.3,10.5c0,5.7,4.6,10.4,10.3,10.5v0h1.2h3h7.6
	c0.7,13.4,11.9,24.1,25.5,24.1h12.6c8.5,0,16.1-4.2,20.7-10.6c1.6,20.8,19,37.3,40.2,37.3c22.3,0,40.4-18.1,40.4-40.4
	c0-1.2-0.1-2.4-0.2-3.5C185.9,87.8,199.1,71.8,199.1,52.7z"/>
</svg>
