<?xml version="1.0" encoding="utf-8"?>
<!-- Generator: Adobe Illustrator 19.0.1, SVG Export Plug-In . SVG Version: 6.00 Build 0)  -->
<svg version="1.1" xmlns="http://www.w3.org/2000/svg" xmlns:xlink="http://www.w3.org/1999/xlink" x="0px" y="0px"
	 viewBox="0 0 213.6 248.1" style="enable-background:new 0 0 213.6 248.1;" xml:space="preserve">
<style type="text/css">
	.st0{fill:none;stroke:#FF0000;stroke-miterlimit:10;}
</style>
<g id="Layer_2">
	<path class="st0" d="M169.6,130.1c-1.4-11.3-7.8-20.7-16.9-26.6l0-46.2c0-18.1-14.7-32.8-32.8-32.8c-16.6,0-30.4,12.4-32.5,28.4
		c-0.8-0.1-1.6-0.1-2.5-0.1c-3.1,0-6.1,0.6-8.8,1.6C72,46,63.4,40.3,53.5,40.3c-13.9,0-25.1,11.2-25.1,25.1c0,6.7,2.6,12.7,6.8,17.2
		c-6.2,4.6-8.9,12-10.2,20.2c-1,5.9,3.4,12.6,3.4,12.6s0.3,0.5,0.4,0.6c1.4,2.4,6.6,11.9,2.4,18.1c-0.4,0.5-0.7,1-1,1.6
		c0,0-5.5,6.7-4.5,15.8c1.8,16.3,13.3,29.6,29.6,29.6c4.2,0,8.1-0.9,11.7-2.4c-2.4,4.7-3.7,10-3.7,15.7c0,19.2,15.6,34.7,34.7,34.7
		c8,0,15.3-2.7,21.2-7.2l28.5,0c2.5,0.4,5.2,0.7,7.8,0.7c26.1,0,47.3-21.2,47.3-47.3C202.8,154,188.8,136.1,169.6,130.1z"/>
</g>
<g id="Layer_1">
	<path d="M156.9,185.7C156.9,185.7,156.9,185.7,156.9,185.7c-2.7-0.9-5.1-2.5-6.6-4.5c-1.3-1.8-1.7-3.6-1.2-5.3
		c0.5-1.6-0.4-3.3-1.9-3.8c-1.6-0.5-3.3,0.4-3.8,1.9c-1.1,3.4-0.4,7.3,2,10.6c2.2,3.1,5.6,5.5,9.6,6.8c0,0,0,0,0,0
		c5.3,1.7,8.9,6.2,7.7,9.8c-0.5,1.6,0.4,3.3,1.9,3.8c0.3,0.1,0.6,0.1,0.9,0.1c1.3,0,2.4-0.8,2.9-2.1
		C170.7,196.2,165.5,188.4,156.9,185.7z"/>
	<path d="M137.4,164.9c-2.2-3.1-5.6-5.5-9.6-6.8c-2.7-0.9-5.1-2.5-6.6-4.5c-1.3-1.8-1.7-3.6-1.2-5.3c0.5-1.6-0.4-3.3-1.9-3.8
		c-1.6-0.5-3.3,0.4-3.8,1.9c-1.1,3.4-0.4,7.3,2,10.6c2.2,3.1,5.6,5.5,9.6,6.8c2.7,0.9,5.1,2.5,6.6,4.5c1.3,1.8,1.7,3.6,1.2,5.3
		c-0.5,1.6,0.4,3.3,1.9,3.8c0.3,0.1,0.6,0.1,0.9,0.1c1.3,0,2.4-0.8,2.9-2.1C140.5,172,139.8,168.2,137.4,164.9z"/>
	<path d="M108.6,135.5c-2.2-3.1-5.6-5.5-9.6-6.8c-5.3-1.7-8.9-6.2-7.7-9.8c0.5-1.6-0.4-3.3-1.9-3.8c-1.6-0.5-3.3,0.4-3.8,1.9
		c-2.2,6.8,3,14.6,11.6,17.3c2.7,0.9,5.1,2.5,6.6,4.5c1.3,1.8,1.7,3.6,1.2,5.3c-0.5,1.6,0.4,3.3,1.9,3.8c0.3,0.1,0.6,0.1,0.9,0.1
		c1.3,0,2.4-0.8,2.9-2.1C111.6,142.7,110.9,138.8,108.6,135.5z"/>
	<path d="M81.2,108.4c-2.2-3.1-5.6-5.5-9.6-6.8c-2.7-0.9-5.1-2.5-6.6-4.5c-1.3-1.8-1.7-3.6-1.2-5.3c0.5-1.6-0.4-3.3-1.9-3.8
		c-1.6-0.5-3.3,0.4-3.8,1.9c-1.1,3.4-0.4,7.3,2,10.6c2.2,3.1,5.6,5.5,9.6,6.8c2.7,0.9,5.1,2.5,6.6,4.5c1.3,1.8,1.7,3.6,1.2,5.3
		c-0.5,1.6,0.4,3.3,1.9,3.8c0.3,0.1,0.6,0.1,0.9,0.1c1.3,0,2.4-0.8,2.9-2.1C84.3,115.5,83.6,111.7,81.2,108.4z"/>
	<path d="M175.4,200.1c-1.6-0.2-3.2,0.9-3.4,2.5c-0.5,3.6-6.2,7.6-13.7,7.6c-0.1,0-0.1,0-0.2,0h-38.9c1.3-2.3,2.1-5,2.1-7.9
		c0-2.9-0.8-5.6-2.2-8c1.4-2.3,2.2-5.1,2.2-8c0-8.8-7.1-16-16-16c-2.9,0-5.6,0.8-8,2.2c-2.3-1.4-5.1-2.2-8-2.2c-8.8,0-16,7.1-16,16
		c0,2.9,0.8,5.6,2.2,8c-1.4,2.3-2.2,5.1-2.2,8c0,8.8,7.1,16,16,16c2.9,0,5.6-0.8,8-2.2c2.3,1.4,5.1,2.2,8,2.2c2.8,0,5.5-0.7,7.8-2
		h45c0.1,0,0.1,0,0.2,0c10,0,18.5-5.6,19.6-12.7C178.2,201.9,177.1,200.3,175.4,200.1z"/>
	<path d="M193.5,163.7c0-11.4-9.3-20.7-20.7-20.7c-8.1,0-14.7-6.6-14.7-14.6c0-11.4-9.3-20.7-20.7-20.7c-8.1,0-14.7-6.6-14.7-14.7
		v-17c9.2-1.4,16.2-9.4,16.2-19c0-10.6-8.6-19.2-19.2-19.2s-19.2,8.6-19.2,19.2c0,9.6,7,17.5,16.2,19v17c0,11.4,9.3,20.7,20.7,20.7
		c8.1,0,14.7,6.6,14.7,14.7c0,11.4,9.3,20.6,20.7,20.6c8.1,0,14.7,6.6,14.7,14.7c0,4.5-2,8.5-5.2,11.2c-2.6-2.5-5.8-4.1-9.1-5
		c-0.9-3.5-2.6-6.8-5.4-9.5c-2.5-2.5-5.5-4.2-8.7-5.2c-0.9-3.2-2.6-6.2-5.2-8.7c-2.7-2.7-5.9-4.4-9.3-5.3c-0.9-3.4-2.6-6.6-5.3-9.3
		c-2.6-2.6-5.7-4.3-9-5.2c-0.9-3.3-2.6-6.4-5.2-9c-2.7-2.7-6.1-4.5-9.6-5.4c-0.9-3.5-2.6-6.9-5.4-9.6c-2.5-2.5-5.5-4.2-8.7-5.1
		c-0.9-3.2-2.6-6.2-5.1-8.7c-8-8-20.9-8-28.8,0l28.8,28.8l21.5,21.5l21.5,21.5l0,0l14.6,14.6l0,0l0,0l0,0l28.8,28.8
		c6.6-6.6,7.7-16.7,3.3-24.5C190.6,175.8,193.5,170.1,193.5,163.7z M119.9,67.5c-1.7,0-3-1.3-3-3v-4.2h-4.2c-1.7,0-3-1.3-3-3
		s1.3-3,3-3h4.2v-4.2c0-1.7,1.3-3,3-3s3,1.3,3,3v4.2h4.2c1.7,0,3,1.3,3,3s-1.3,3-3,3h-4.2v4.2C122.9,66.1,121.6,67.5,119.9,67.5z"/>
	<path d="M73.7,142.3c-4.2-4.2-10.2-5.6-15.6-4.3c1.8-3.1,2.8-6.6,2.8-10.3c0-5.5-2.1-10.7-6-14.6c0,0,0,0,0,0
		c-5.7-5.7-5.7-15,0-20.7c1.2-1.2,1.2-3.1,0-4.2c-1.2-1.2-3.1-1.2-4.2,0c-8.1,8.1-8.1,21.1,0,29.2c0,0,0,0,0,0
		c2.8,2.8,4.3,6.4,4.3,10.4c0,3.9-1.5,7.6-4.3,10.4c-1.2,1.2-1.2,3.1,0,4.2c0,0,0.1,0,0.1,0.1l23.1,23.1
		C80.1,159,80.1,148.7,73.7,142.3z"/>
	<path d="M42.3,113.1C42.3,113.1,42.3,113.1,42.3,113.1c-2.8-2.8-4.3-6.5-4.3-10.4c0-3.9,1.5-7.6,4.3-10.4c0,0,0,0,0,0
		c7.4-7.4,8-19,1.8-27.1h25.8c0-9-7.3-16.4-16.4-16.4c-9,0-16.4,7.3-16.4,16.4h0c0,0.8,0.3,1.5,0.9,2.1c5.7,5.7,5.7,15,0,20.7
		c0,0,0,0,0,0c-3.9,3.9-6,9.1-6,14.6c0,5.5,2.1,10.7,6,14.6c0,0,0,0,0,0c5.7,5.7,5.7,15,0,20.7c0,0,0,0,0,0c-3.9,3.9-6,9.1-6,14.6
		s2.1,10.7,6,14.6c0.6,0.6,1.4,0.9,2.1,0.9s1.5-0.3,2.1-0.9c0.4-0.4,0.7-0.9,0.8-1.4c6.4,5.8,16.3,5.6,22.5-0.6l-23.1-23.1
		C50.3,134.1,50.3,121.1,42.3,113.1z"/>
	<path d="M134.2,98.4c5.5,5.5,14.5,5.5,20,0c0.5-0.5,1-1.1,1.4-1.7l37.1,37.1c1.2,1.2,3.1,1.2,4.2,0s1.2-3.1,0-4.2l-38.8-38.8
		c0.7-4.3-0.6-8.9-3.9-12.3c-5.5-5.5-14.5-5.5-20,0C128.7,83.9,128.7,92.9,134.2,98.4z M143.3,83l6.3,6.3c1.2,1.2,1.2,3.1,0,4.2
		c-1.2,1.2-3.1,1.2-4.2,0l-6.3-6.3c-1.2-1.2-1.2-3.1,0-4.2C140.2,81.8,142.1,81.8,143.3,83z"/>
</g>
</svg>
